<?xml version="1.0" standalone="no"?>
<!DOCTYPE svg PUBLIC "-//W3C//DTD SVG 20010904//EN"
 "http://www.w3.org/TR/2001/REC-SVG-20010904/DTD/svg10.dtd">
<svg version="1.0" xmlns="http://www.w3.org/2000/svg"
 width="333.000000pt" height="333.000000pt" viewBox="0 0 333.000000 333.000000"
 preserveAspectRatio="xMidYMid meet">
<metadata>
Created by potrace 1.11, written by Peter Selinger 2001-2013
</metadata>
<g transform="translate(0.000000,333.000000) scale(0.100000,-0.100000)"
fill="#000000" stroke="none">
<path d="M1062 3218 c-2 -10 -13 -18 -23 -18 -14 0 -18 -9 -21 -47 l-3 -48
-100 0 c-88 0 -100 -3 -99 -18 2 -16 -7 -21 -33 -18 -8 1 -12 -21 -11 -71 1
-137 8 -124 -74 -124 -51 1 -73 -3 -74 -11 -1 -7 -2 -17 -3 -22 0 -5 -9 -7
-19 -4 -17 4 -18 -4 -18 -90 l1 -94 -38 2 c-22 1 -37 -3 -36 -9 3 -26 -2 -35
-19 -31 -17 3 -18 -16 -18 -408 1 -227 0 -421 -2 -432 -3 -18 -10 -20 -63 -18
-45 1 -59 -2 -59 -13 0 -8 -4 -14 -10 -14 -6 0 -10 -65 -10 -175 l0 -175 105
0 105 0 0 -85 0 -85 30 0 30 0 0 -65 c0 -62 1 -65 25 -65 20 0 25 -6 31 -35
l6 -35 68 0 67 0 -2 -55 -2 -55 83 0 84 0 0 -55 0 -55 230 0 230 0 0 -30 c0
-30 -1 -30 -54 -30 -49 0 -55 -2 -58 -22 -3 -22 -6 -23 -128 -23 l-125 0 -2
-65 c0 -36 -2 -67 -2 -70 -1 -3 -23 -5 -49 -4 l-48 1 0 -274 0 -273 696 0 696
0 0 273 1 274 -49 -2 c-53 -1 -50 -7 -50 91 l0 50 -132 0 c-128 -1 -131 0
-134 22 -3 18 -10 22 -42 22 -39 0 -50 11 -42 43 4 16 24 17 233 17 197 0 229
2 229 15 0 8 5 15 11 15 6 0 10 12 9 28 -4 52 -4 52 75 52 60 0 75 3 75 15 0
8 5 15 10 15 6 0 9 3 9 8 -1 4 -1 22 0 40 l1 32 59 0 c50 0 59 3 64 20 3 11
13 23 24 27 15 7 18 19 18 83 0 70 1 75 23 78 12 2 22 10 22 18 0 8 4 14 9 14
5 0 9 24 9 53 0 28 0 64 1 80 l1 27 103 0 c102 0 102 0 114 28 6 16 11 91 11
189 l0 162 -56 -1 c-32 0 -62 0 -67 1 -7 1 -10 146 -10 419 l0 418 -45 -1 -45
-1 0 126 1 127 -66 -2 c-102 -3 -96 -9 -95 116 1 70 -3 109 -9 110 -6 1 -45 3
-86 4 -41 1 -81 3 -87 4 -9 1 -13 21 -13 64 l0 62 -682 0 c-642 0 -681 -1
-686 -17z"/>
</g>
</svg>
